<?xml version="1.0" standalone="no"?>
<!DOCTYPE svg PUBLIC "-//W3C//DTD SVG 20010904//EN"
 "http://www.w3.org/TR/2001/REC-SVG-20010904/DTD/svg10.dtd">
<svg version="1.0" xmlns="http://www.w3.org/2000/svg"
 width="511.000000pt" height="488.000000pt" viewBox="0 0 511.000000 488.000000"
 preserveAspectRatio="xMidYMid meet">

<g transform="translate(0.000000,488.000000) scale(0.100000,-0.100000)"
fill="#000000" stroke="none">
<path d="M1019 4575 c-3 -2 -27 -6 -54 -9 -57 -6 -141 -31 -161 -47 -8 -6 -14
-9 -14 -5 0 9 -100 -43 -118 -60 -7 -8 -17 -14 -22 -14 -19 0 -194 -186 -210
-223 -3 -7 -17 -32 -32 -57 -14 -25 -37 -83 -49 -130 l-24 -85 -3 -1445 c-3
-1603 -6 -1531 62 -1676 47 -99 111 -183 197 -259 84 -74 167 -121 289 -161
l85 -29 1465 0 1465 0 75 24 c232 72 400 210 495 405 74 151 69 69 73 1269 l3
1079 -23 -8 c-13 -3 -33 -10 -45 -15 l-23 -9 0 -1004 c0 -845 -2 -1016 -15
-1073 -54 -253 -232 -453 -480 -540 l-80 -28 -1400 -3 c-992 -2 -1419 0 -1465
8 -186 32 -387 173 -488 343 -42 69 -79 179 -92 266 -5 36 -11 659 -13 1391
-6 1537 -10 1455 87 1634 97 178 258 303 466 362 61 18 138 19 1420 22 1436 3
1450 3 1584 -44 70 -24 211 -105 233 -134 10 -13 15 -11 42 14 24 23 28 32 19
43 -8 11 -7 12 6 7 9 -3 16 -10 16 -15 0 -5 5 -9 10 -9 6 0 10 4 10 8 0 10
-51 37 -63 33 -5 -1 -6 3 -3 8 8 12 -21 34 -34 26 -6 -4 -9 -2 -8 4 3 10 -39
38 -102 67 -19 9 -43 20 -52 25 -9 5 -62 18 -116 29 -98 20 -132 20 -1504 20
-773 0 -1407 -2 -1409 -5z m3166 -143 c-3 -3 -11 0 -18 7 -9 10 -8 11 6 5 10
-3 15 -9 12 -12z m39 -77 c3 -8 1 -15 -3 -15 -5 0 -11 7 -15 15 -3 8 -1 15 3
15 5 0 11 -7 15 -15z m36 11 c0 -3 -4 -8 -10 -11 -5 -3 -10 -1 -10 4 0 6 5 11
10 11 6 0 10 -2 10 -4z"/>
<path d="M4255 4328 l-29 -27 29 -29 c39 -38 85 -92 85 -101 0 -3 8 -15 16
-26 16 -19 16 -19 9 5 -4 14 -18 37 -32 52 -27 28 -24 51 5 41 11 -4 9 1 -7
15 -13 12 -19 22 -13 22 6 0 14 -4 17 -10 9 -14 22 -12 29 5 3 8 -5 30 -17 49
-27 40 -53 42 -92 4z m100 -47 c-6 -5 -30 23 -33 39 -1 8 6 4 17 -10 11 -14
18 -26 16 -29z m-45 19 c0 -5 -4 -10 -10 -10 -5 0 -10 5 -10 10 0 6 5 10 10
10 6 0 10 -4 10 -10z m0 -52 c0 -14 -19 1 -31 25 -12 22 -12 22 10 3 11 -11
21 -23 21 -28z"/>
<path d="M1065 4325 c-87 -20 -137 -39 -202 -80 -145 -92 -249 -242 -283 -409
-9 -45 -12 -390 -14 -1390 l-1 -1331 27 -73 c69 -190 193 -318 383 -395 l80
-32 1342 -3 c1163 -2 1352 0 1414 13 208 43 396 213 467 422 l27 78 3 978 c2
739 0 977 -9 977 -6 0 -28 -5 -48 -10 -20 -6 -110 -26 -201 -46 -91 -19 -173
-37 -182 -40 -16 -5 -18 -28 -20 -257 l-3 -252 -257 -3 -258 -2 -2 -843 -3
-842 -360 2 -360 3 -3 840 -2 840 -230 0 -230 0 0 280 0 280 229 0 229 0 4
233 c4 228 4 233 33 302 15 39 36 85 46 102 10 18 16 41 13 50 -4 12 -3 14 3
6 6 -8 21 4 51 39 36 43 40 53 30 67 -11 14 -11 14 3 3 13 -10 21 -8 43 9 22
17 24 24 15 42 -10 21 -9 21 5 3 13 -16 18 -17 31 -6 12 10 13 16 3 29 -12 14
-11 14 4 2 15 -11 22 -11 43 3 14 9 27 16 30 16 3 0 26 10 53 23 26 13 67 29
92 35 36 8 596 19 723 13 l27 -1 2 -262 2 -263 6 240 c3 132 7 236 9 230 2 -5
3 -13 2 -17 0 -5 3 -8 8 -8 6 0 12 -15 14 -32 4 -32 4 -32 5 5 1 20 7 37 12
37 6 0 10 7 10 15 0 9 -6 12 -17 9 -17 -5 -17 -5 -1 9 10 8 18 19 18 26 0 6 9
11 19 11 10 0 21 7 25 15 3 8 16 15 30 15 24 0 56 23 56 41 0 5 11 9 25 9 22
0 24 3 15 19 -16 30 -12 34 12 11 12 -11 25 -20 30 -20 4 0 8 -8 8 -17 0 -15
1 -15 13 1 12 17 14 17 20 2 4 -9 2 -16 -3 -16 -5 0 -8 -13 -7 -29 1 -16 7
-27 13 -24 7 2 10 14 7 26 -4 22 -4 22 11 3 9 -11 16 -23 16 -28 0 -4 5 -8 11
-8 6 0 0 17 -12 38 -30 50 -64 92 -56 70 10 -29 -8 -21 -45 20 -19 20 -46 44
-62 52 -24 12 -28 12 -36 0 -6 -8 -10 -10 -10 -5 0 6 4 16 8 23 11 17 63 -9
97 -50 14 -17 28 -28 31 -25 4 3 -9 21 -27 39 -42 41 -109 92 -109 82 0 -4 -6
1 -14 11 -8 11 -19 16 -30 12 -9 -4 -15 -3 -12 2 6 10 -84 45 -154 61 -29 6
-522 9 -1355 9 -1057 0 -1322 -3 -1370 -14z m2822 -71 c-3 -3 -12 -4 -19 -1
-8 3 -5 6 6 6 11 1 17 -2 13 -5z m-130 -210 c-3 -3 -12 -4 -19 -1 -8 3 -5 6 6
6 11 1 17 -2 13 -5z m110 -66 c-3 -8 -6 -5 -6 6 -1 11 2 17 5 13 3 -3 4 -12 1
-19z m-1113 -146 c3 -5 -1 -9 -9 -9 -8 0 -12 4 -9 9 3 4 7 8 9 8 2 0 6 -4 9
-8z m-177 -729 c-3 -10 -5 -4 -5 12 0 17 2 24 5 18 2 -7 2 -21 0 -30z m-980
-189 c-3 -3 -12 -4 -19 -1 -8 3 -5 6 6 6 11 1 17 -2 13 -5z"/>
<path d="M4375 4260 c-3 -5 0 -10 7 -10 9 0 9 -3 -2 -10 -12 -7 -10 -9 8 -7
26 2 27 4 8 23 -9 9 -17 10 -21 4z"/>
<path d="M4340 4215 c7 -8 17 -12 22 -9 6 4 5 10 -3 15 -22 14 -33 10 -19 -6z"/>
<path d="M4415 4222 c-9 -6 -11 -28 -6 -56 0 -5 9 -2 18 5 15 12 16 12 10 -5
-8 -20 16 -56 37 -56 6 0 0 7 -12 16 -13 9 -21 22 -18 30 7 19 -17 74 -29 66z
m8 -37 c-3 -9 -8 -14 -10 -11 -3 3 -2 9 2 15 9 16 15 13 8 -4z"/>
<path d="M4375 4164 c9 -14 14 -35 12 -46 -4 -15 -2 -17 7 -9 17 14 -2 81 -23
81 -10 0 -10 -6 4 -26z"/>
<path d="M4431 4081 c-8 -5 -9 -11 -3 -15 5 -3 12 1 16 9 6 17 6 18 -13 6z"/>
<path d="M4460 4076 c0 -2 7 -7 16 -10 8 -3 12 -2 9 4 -6 10 -25 14 -25 6z"/>
<path d="M4410 4043 c0 -4 5 -15 10 -23 8 -13 10 -13 10 2 0 9 -4 20 -10 23
-5 3 -10 3 -10 -2z"/>
<path d="M4005 4007 c-4 -10 -5 -21 -1 -24 10 -10 18 4 13 24 -4 17 -4 17 -12
0z"/>
<path d="M4430 3971 c0 -6 4 -13 10 -16 6 -3 7 1 4 9 -7 18 -14 21 -14 7z"/>
<path d="M3976 3918 c3 -4 9 -8 15 -8 5 0 9 4 9 8 0 5 -7 9 -15 9 -8 0 -12 -4
-9 -9z"/>
<path d="M4261 3894 c0 -11 3 -14 6 -6 3 7 2 16 -1 19 -3 4 -6 -2 -5 -13z"/>
<path d="M3987 3883 c-11 -10 -8 -43 3 -43 6 0 10 11 10 25 0 26 -2 29 -13 18z"/>
<path d="M3873 3800 c0 -25 2 -35 4 -22 2 12 2 32 0 45 -2 12 -4 2 -4 -23z"/>
<path d="M3940 3819 c0 -11 5 -17 10 -14 6 3 10 13 10 21 0 8 -4 14 -10 14 -5
0 -10 -9 -10 -21z"/>
<path d="M3488 3420 c-32 -10 -78 -40 -60 -40 7 0 10 -5 7 -11 -4 -6 11 -1 34
10 23 12 41 17 41 12 0 -5 -6 -12 -12 -14 -10 -4 -10 -6 0 -6 7 -1 11 -5 7
-10 -3 -5 -1 -12 4 -15 5 -3 11 1 15 9 3 8 2 15 -2 15 -4 0 -8 11 -8 25 -1 15
2 22 9 18 6 -3 7 -1 3 5 -4 7 -8 12 -9 11 -1 0 -14 -4 -29 -9z m-12 -25 c-11
-8 -25 -15 -30 -15 -6 0 -2 7 8 15 11 8 25 15 30 15 6 0 2 -7 -8 -15z"/>
<path d="M3600 3420 c0 -5 7 -7 15 -4 8 4 15 8 15 10 0 2 -7 4 -15 4 -8 0 -15
-4 -15 -10z"/>
<path d="M3380 3341 c-12 -17 -19 -37 -17 -44 4 -8 6 -7 6 3 1 8 11 26 22 40
l20 25 -6 -25 c-5 -22 -5 -23 6 -7 21 35 -6 41 -31 8z"/>
<path d="M3411 3313 c-12 -13 -12 -16 0 -24 18 -11 33 5 23 24 -8 13 -11 13
-23 0z"/>
<path d="M3347 3263 c-4 -3 -7 -20 -7 -36 0 -38 10 -30 15 12 4 32 3 36 -8 24z"/>
<path d="M3443 3033 c48 -2 126 -2 175 0 48 1 8 3 -88 3 -96 0 -136 -2 -87 -3z"/>
<path d="M3738 3033 c6 -2 18 -2 25 0 6 3 1 5 -13 5 -14 0 -19 -2 -12 -5z"/>
</g>
</svg>
