<?xml version="1.0" standalone="no"?>
<!DOCTYPE svg PUBLIC "-//W3C//DTD SVG 20010904//EN"
 "http://www.w3.org/TR/2001/REC-SVG-20010904/DTD/svg10.dtd">
<svg version="1.0" xmlns="http://www.w3.org/2000/svg"
 width="537.000000pt" height="465.000000pt" viewBox="0 0 537.000000 465.000000"
 preserveAspectRatio="xMidYMid meet">

<g transform="translate(0.000000,465.000000) scale(0.100000,-0.100000)"
fill="#000000" stroke="none">
<path d="M1376 4559 c-234 -28 -468 -138 -644 -304 -178 -167 -288 -362 -345
-610 -20 -86 -20 -115 -19 -690 2 -606 7 -759 23 -749 5 3 9 -2 9 -10 0 -9 6
-13 14 -10 14 5 30 -22 21 -37 -4 -5 1 -6 11 -2 13 5 15 2 9 -18 -4 -17 -4
-20 3 -10 9 12 13 12 26 -2 9 -8 16 -23 16 -31 0 -9 5 -16 10 -16 6 0 10 5 10
10 0 6 5 10 12 10 9 0 9 -3 0 -12 -19 -19 -14 -30 9 -23 20 7 21 4 15 -21 -4
-20 -4 -24 3 -15 8 12 11 12 23 0 8 -8 17 -22 21 -31 3 -10 12 -18 20 -18 14
0 57 -44 57 -59 0 -4 9 -16 20 -26 11 -10 20 -13 20 -7 0 7 -5 12 -12 12 -6 0
-8 3 -5 7 9 9 57 -37 57 -54 0 -8 4 -12 9 -8 6 3 14 -3 20 -12 7 -13 11 91 12
347 0 201 4 538 8 750 8 379 8 387 35 475 118 394 447 676 846 725 110 13
1681 13 1809 0 274 -29 534 -179 700 -403 58 -79 125 -218 158 -327 l28 -95 0
-955 0 -955 -23 -85 c-27 -98 -103 -262 -156 -335 -92 -127 -264 -269 -396
-328 -207 -91 -245 -94 -1015 -97 -357 -1 -662 -3 -676 -4 -14 0 -33 -9 -43
-18 -16 -16 -15 -18 11 -24 28 -7 41 -16 71 -46 29 -28 42 -47 42 -58 0 -5 8
-10 18 -10 9 0 30 -18 46 -40 17 -22 34 -40 39 -40 17 0 41 -33 43 -59 3 -37
3 -37 14 -21 9 13 13 12 29 -8 34 -39 98 -43 749 -45 672 -2 676 -2 851 58
396 134 694 483 765 894 14 83 16 231 16 1246 0 994 -2 1165 -15 1241 -49 282
-193 528 -410 703 -139 111 -278 180 -460 229 l-100 26 -1165 2 c-664 1 -1199
-2 -1244 -7z m731 -4055 c-3 -3 -12 -4 -19 -1 -8 3 -5 6 6 6 11 1 17 -2 13 -5z"/>
<path d="M1620 3839 c-211 -55 -385 -200 -481 -404 -71 -151 -70 -141 -67
-1070 2 -652 6 -829 16 -833 6 -2 12 -10 12 -18 0 -8 5 -14 11 -14 6 0 9 -6 6
-13 -3 -7 4 -19 14 -26 11 -6 17 -16 13 -22 -3 -6 0 -10 7 -8 28 3 38 -1 33
-16 -4 -8 -1 -15 6 -15 11 0 31 -16 100 -81 16 -15 26 -33 24 -46 -3 -17 2
-22 24 -25 22 -2 27 -8 25 -28 -1 -14 1 -19 3 -12 7 16 34 16 34 -1 0 -7 9
-18 20 -25 11 -7 20 -22 20 -35 0 -17 2 -19 10 -7 10 17 25 4 68 -57 13 -18
30 -33 38 -33 8 0 14 -4 14 -8 0 -4 16 -25 35 -45 19 -20 35 -42 35 -47 0 -6
6 -10 13 -10 20 0 69 -58 54 -64 -7 -2 4 -5 23 -5 24 -1 31 -4 21 -10 -11 -7
-11 -9 0 -14 12 -5 12 -7 0 -15 -11 -8 -9 -11 10 -12 13 -1 407 -4 874 -6 950
-5 912 -8 1070 65 221 103 377 312 415 558 16 105 8 1805 -9 1858 -81 253
-207 405 -412 499 -150 69 -108 66 -1105 65 -858 0 -902 -1 -974 -20z m2061
-384 c20 -13 43 -39 52 -58 21 -44 22 -119 1 -162 -18 -38 -74 -80 -121 -90
-40 -8 -102 9 -138 37 -33 26 -64 91 -65 136 0 37 28 98 58 125 54 49 147 54
213 12z m-894 -305 c199 -42 346 -122 488 -265 108 -109 175 -216 221 -353
151 -451 -52 -935 -480 -1142 -118 -57 -197 -79 -319 -90 -279 -23 -532 64
-732 252 -147 139 -234 296 -276 496 -64 311 36 628 268 853 147 143 312 224
533 262 67 11 212 5 297 -13z"/>
<path d="M2515 2899 c-270 -41 -489 -235 -561 -499 -24 -87 -24 -253 0 -340
36 -130 101 -236 203 -329 74 -68 190 -131 288 -156 77 -20 234 -20 318 -1
227 53 407 216 484 439 25 74 28 95 28 217 0 147 -9 188 -67 307 -60 122 -162
225 -290 293 -107 57 -283 87 -403 69z"/>
<path d="M1260 1323 c0 -5 8 -17 17 -28 14 -18 15 -18 9 -2 -3 10 -6 23 -6 28
0 5 -4 9 -10 9 -5 0 -10 -3 -10 -7z"/>
</g>
</svg>
